<?xml version="1.0" encoding="UTF-8" standalone="no"?>
<!DOCTYPE svg PUBLIC "-//W3C//DTD SVG 1.1//EN"
 "http://www.w3.org/Graphics/SVG/1.1/DTD/svg11.dtd">
<!-- Generated by graphviz version 13.1.2 (20250808.2320)
 -->
<!-- Title: structs Pages: 1 -->
<svg width="1567pt" height="215pt"
 viewBox="0.00 0.00 1567.00 215.00" xmlns="http://www.w3.org/2000/svg" xmlns:xlink="http://www.w3.org/1999/xlink">
<g id="graph0" class="graph" transform="scale(1 1) rotate(0) translate(4 211)">
<title>structs</title>
<polygon fill="white" stroke="none" points="-4,4 -4,-211 1563,-211 1563,4 -4,4"/>
<!-- subfrm -->
<g id="node1" class="node">
<title>subfrm</title>
<polygon fill="none" stroke="black" points="0,-45.5 0,-134.5 1559,-134.5 1559,-45.5 0,-45.5"/>
<text xml:space="preserve" text-anchor="middle" x="39.12" y="-111.5" font-family="Microsoft YaHei" font-size="20.00">D0 🔽</text>
<text xml:space="preserve" text-anchor="middle" x="39.12" y="-84.5" font-family="Microsoft YaHei" font-size="20.00">m=0</text>
<text xml:space="preserve" text-anchor="middle" x="39.12" y="-57.5" font-family="Microsoft YaHei" font-size="20.00">k0 = 4</text>
<polyline fill="none" stroke="black" points="78.25,-45.5 78.25,-134.5"/>
<text xml:space="preserve" text-anchor="middle" x="117.38" y="-111.5" font-family="Microsoft YaHei" font-size="20.00">S1 🔄</text>
<text xml:space="preserve" text-anchor="middle" x="117.38" y="-84.5" font-family="Microsoft YaHei" font-size="20.00">m=0</text>
<text xml:space="preserve" text-anchor="middle" x="117.38" y="-57.5" font-family="Microsoft YaHei" font-size="20.00">k0 = 6</text>
<polyline fill="none" stroke="black" points="156.5,-45.5 156.5,-134.5"/>
<text xml:space="preserve" text-anchor="middle" x="194.88" y="-111.5" font-family="Microsoft YaHei" font-size="20.00">U2 🔺</text>
<text xml:space="preserve" text-anchor="middle" x="194.88" y="-84.5" font-family="Microsoft YaHei" font-size="20.00">M = 1</text>
<text xml:space="preserve" text-anchor="middle" x="194.88" y="-57.5" font-family="Microsoft YaHei" font-size="20.00">{6}</text>
<polyline fill="none" stroke="black" points="233.25,-45.5 233.25,-134.5"/>
<text xml:space="preserve" text-anchor="middle" x="271.62" y="-111.5" font-family="Microsoft YaHei" font-size="20.00">U3 🔺</text>
<text xml:space="preserve" text-anchor="middle" x="271.62" y="-84.5" font-family="Microsoft YaHei" font-size="20.00">M = 0</text>
<text xml:space="preserve" text-anchor="middle" x="271.62" y="-57.5" font-family="Microsoft YaHei" font-size="20.00">{ }</text>
<polyline fill="none" stroke="black" points="310,-45.5 310,-134.5"/>
<text xml:space="preserve" text-anchor="middle" x="348.38" y="-111.5" font-family="Microsoft YaHei" font-size="20.00">U4 🔺</text>
<text xml:space="preserve" text-anchor="middle" x="348.38" y="-84.5" font-family="Microsoft YaHei" font-size="20.00">M = 1</text>
<text xml:space="preserve" text-anchor="middle" x="348.38" y="-57.5" font-family="Microsoft YaHei" font-size="20.00">{4}</text>
<polyline fill="none" stroke="black" points="386.75,-45.5 386.75,-134.5"/>
<text xml:space="preserve" text-anchor="middle" x="425.88" y="-111.5" font-family="Microsoft YaHei" font-size="20.00">D5 🔽</text>
<text xml:space="preserve" text-anchor="middle" x="425.88" y="-84.5" font-family="Microsoft YaHei" font-size="20.00">m=0</text>
<text xml:space="preserve" text-anchor="middle" x="425.88" y="-57.5" font-family="Microsoft YaHei" font-size="20.00">k0 = 4</text>
<polyline fill="none" stroke="black" points="465,-45.5 465,-134.5"/>
<text xml:space="preserve" text-anchor="middle" x="504.12" y="-111.5" font-family="Microsoft YaHei" font-size="20.00">S6 🔄</text>
<text xml:space="preserve" text-anchor="middle" x="504.12" y="-84.5" font-family="Microsoft YaHei" font-size="20.00">m=0</text>
<text xml:space="preserve" text-anchor="middle" x="504.12" y="-57.5" font-family="Microsoft YaHei" font-size="20.00">k0 = 6</text>
<polyline fill="none" stroke="black" points="543.25,-45.5 543.25,-134.5"/>
<text xml:space="preserve" text-anchor="middle" x="581.62" y="-111.5" font-family="Microsoft YaHei" font-size="20.00">U7 🔺</text>
<text xml:space="preserve" text-anchor="middle" x="581.62" y="-84.5" font-family="Microsoft YaHei" font-size="20.00">M = 1</text>
<text xml:space="preserve" text-anchor="middle" x="581.62" y="-57.5" font-family="Microsoft YaHei" font-size="20.00">{6}</text>
<polyline fill="none" stroke="black" points="620,-45.5 620,-134.5"/>
<text xml:space="preserve" text-anchor="middle" x="658.38" y="-111.5" font-family="Microsoft YaHei" font-size="20.00">U8 🔺</text>
<text xml:space="preserve" text-anchor="middle" x="658.38" y="-84.5" font-family="Microsoft YaHei" font-size="20.00">M = 0</text>
<text xml:space="preserve" text-anchor="middle" x="658.38" y="-57.5" font-family="Microsoft YaHei" font-size="20.00">{ }</text>
<polyline fill="none" stroke="black" points="696.75,-45.5 696.75,-134.5"/>
<text xml:space="preserve" text-anchor="middle" x="735.12" y="-111.5" font-family="Microsoft YaHei" font-size="20.00">U9 🔺</text>
<text xml:space="preserve" text-anchor="middle" x="735.12" y="-84.5" font-family="Microsoft YaHei" font-size="20.00">M = 1</text>
<text xml:space="preserve" text-anchor="middle" x="735.12" y="-57.5" font-family="Microsoft YaHei" font-size="20.00">{4}</text>
<polyline fill="none" stroke="black" points="773.5,-45.5 773.5,-134.5"/>
<text xml:space="preserve" text-anchor="middle" x="812.62" y="-111.5" font-family="Microsoft YaHei" font-size="20.00">D0 🔽</text>
<text xml:space="preserve" text-anchor="middle" x="812.62" y="-84.5" font-family="Microsoft YaHei" font-size="20.00">m=0</text>
<text xml:space="preserve" text-anchor="middle" x="812.62" y="-57.5" font-family="Microsoft YaHei" font-size="20.00">k0 = 4</text>
<polyline fill="none" stroke="black" points="851.75,-45.5 851.75,-134.5"/>
<text xml:space="preserve" text-anchor="middle" x="890.88" y="-111.5" font-family="Microsoft YaHei" font-size="20.00">S1 🔄</text>
<text xml:space="preserve" text-anchor="middle" x="890.88" y="-84.5" font-family="Microsoft YaHei" font-size="20.00">m=0</text>
<text xml:space="preserve" text-anchor="middle" x="890.88" y="-57.5" font-family="Microsoft YaHei" font-size="20.00">k0 = 6</text>
<polyline fill="none" stroke="black" points="930,-45.5 930,-134.5"/>
<text xml:space="preserve" text-anchor="middle" x="968.38" y="-111.5" font-family="Microsoft YaHei" font-size="20.00">U2 🔺</text>
<text xml:space="preserve" text-anchor="middle" x="968.38" y="-84.5" font-family="Microsoft YaHei" font-size="20.00">M = 1</text>
<text xml:space="preserve" text-anchor="middle" x="968.38" y="-57.5" font-family="Microsoft YaHei" font-size="20.00">{6}</text>
<polyline fill="none" stroke="black" points="1006.75,-45.5 1006.75,-134.5"/>
<text xml:space="preserve" text-anchor="middle" x="1053.75" y="-98" font-family="Microsoft YaHei" font-size="20.00">U3 🔺</text>
<text xml:space="preserve" text-anchor="middle" x="1053.75" y="-71" font-family="Microsoft YaHei" font-size="20.00">M = 0{ }</text>
<polyline fill="none" stroke="black" points="1100.75,-45.5 1100.75,-134.5"/>
<text xml:space="preserve" text-anchor="middle" x="1139.12" y="-111.5" font-family="Microsoft YaHei" font-size="20.00">U4 🔺</text>
<text xml:space="preserve" text-anchor="middle" x="1139.12" y="-84.5" font-family="Microsoft YaHei" font-size="20.00">M = 1</text>
<text xml:space="preserve" text-anchor="middle" x="1139.12" y="-57.5" font-family="Microsoft YaHei" font-size="20.00">{4}</text>
<polyline fill="none" stroke="black" points="1177.5,-45.5 1177.5,-134.5"/>
<text xml:space="preserve" text-anchor="middle" x="1216.62" y="-111.5" font-family="Microsoft YaHei" font-size="20.00">D5 🔽</text>
<text xml:space="preserve" text-anchor="middle" x="1216.62" y="-84.5" font-family="Microsoft YaHei" font-size="20.00">m=0</text>
<text xml:space="preserve" text-anchor="middle" x="1216.62" y="-57.5" font-family="Microsoft YaHei" font-size="20.00">k0 = 4</text>
<polyline fill="none" stroke="black" points="1255.75,-45.5 1255.75,-134.5"/>
<text xml:space="preserve" text-anchor="middle" x="1292.25" y="-111.5" font-family="Microsoft YaHei" font-size="20.00">S6 🔄</text>
<text xml:space="preserve" text-anchor="middle" x="1292.25" y="-84.5" font-family="Microsoft YaHei" font-size="20.00">m=0</text>
<text xml:space="preserve" text-anchor="middle" x="1292.25" y="-57.5" font-family="Microsoft YaHei" font-size="20.00">k0=6</text>
<polyline fill="none" stroke="black" points="1328.75,-45.5 1328.75,-134.5"/>
<text xml:space="preserve" text-anchor="middle" x="1367.12" y="-111.5" font-family="Microsoft YaHei" font-size="20.00">U7 🔺</text>
<text xml:space="preserve" text-anchor="middle" x="1367.12" y="-84.5" font-family="Microsoft YaHei" font-size="20.00">M = 1</text>
<text xml:space="preserve" text-anchor="middle" x="1367.12" y="-57.5" font-family="Microsoft YaHei" font-size="20.00">{6}</text>
<polyline fill="none" stroke="black" points="1405.5,-45.5 1405.5,-134.5"/>
<text xml:space="preserve" text-anchor="middle" x="1443.88" y="-111.5" font-family="Microsoft YaHei" font-size="20.00">U8 🔺</text>
<text xml:space="preserve" text-anchor="middle" x="1443.88" y="-84.5" font-family="Microsoft YaHei" font-size="20.00">M = 0</text>
<text xml:space="preserve" text-anchor="middle" x="1443.88" y="-57.5" font-family="Microsoft YaHei" font-size="20.00">{ }</text>
<polyline fill="none" stroke="black" points="1482.25,-45.5 1482.25,-134.5"/>
<text xml:space="preserve" text-anchor="middle" x="1520.62" y="-111.5" font-family="Microsoft YaHei" font-size="20.00">U9 🔺</text>
<text xml:space="preserve" text-anchor="middle" x="1520.62" y="-84.5" font-family="Microsoft YaHei" font-size="20.00">M = 1</text>
<text xml:space="preserve" text-anchor="middle" x="1520.62" y="-57.5" font-family="Microsoft YaHei" font-size="20.00">{4}</text>
</g>
<!-- subfrm&#45;&gt;subfrm -->
<g id="edge1" class="edge">
<title>subfrm:s&#45;&gt;subfrm:s</title>
<path fill="none" stroke="blue" d="M812.62,-45.5C803.62,-30 803.62,0 975.88,0 1119.87,0 1143.49,-20.96 1142.11,-36.9"/>
<polygon fill="blue" stroke="blue" points="1139.6,-35.59 1139.62,-44.07 1144.89,-37.43 1139.6,-35.59"/>
<text xml:space="preserve" text-anchor="middle" x="954.17" y="-8" font-family="Microsoft YaHei" font-size="20.00" fill="blue">n&#45;k0</text>
</g>
<!-- subfrm&#45;&gt;subfrm -->
<g id="edge2" class="edge">
<title>subfrm:n&#45;&gt;subfrm:n</title>
<path fill="none" stroke="red" d="M890.88,-134.5C881.88,-150 881.88,-180 1129,-180 1333.65,-180 1368.82,-159.43 1369.76,-143.55"/>
<polygon fill="red" stroke="red" points="1372.47,-142.85 1367.55,-135.95 1367.09,-144.42 1372.47,-142.85"/>
<text xml:space="preserve" text-anchor="middle" x="1107.17" y="-188" font-family="Microsoft YaHei" font-size="20.00" fill="red">n&#45;k0</text>
</g>
<!-- subfrm&#45;&gt;subfrm -->
<g id="edge3" class="edge">
<title>subfrm:s&#45;&gt;subfrm:s</title>
<path fill="none" stroke="green" d="M1216.62,-45.5C1207.62,-30 1207.62,0 1368.62,0 1503.21,0 1525.29,-20.96 1523.66,-36.9"/>
<polygon fill="green" stroke="green" points="1521.15,-35.6 1521.13,-44.07 1526.43,-37.46 1521.15,-35.6"/>
<text xml:space="preserve" text-anchor="middle" x="1346.89" y="-8" font-family="Microsoft YaHei" font-size="20.00" fill="green">n&#45;k0</text>
</g>
<!-- subfrm&#45;&gt;subfrm -->
<g id="edge4" class="edge">
<title>subfrm:n&#45;&gt;subfrm:n</title>
<path fill="none" stroke="orange" d="M504.12,-134.5C495.12,-150 495.12,-180 736.25,-180 935.93,-180 970.25,-159.43 971.04,-143.55"/>
<polygon fill="orange" stroke="orange" points="973.75,-142.84 968.8,-135.95 968.38,-144.42 973.75,-142.84"/>
<text xml:space="preserve" text-anchor="middle" x="714.42" y="-188" font-family="Microsoft YaHei" font-size="20.00" fill="orange">n&#45;k0</text>
</g>
</g>
</svg>
