<?xml version="1.0" encoding="UTF-8" standalone="no"?>
<!DOCTYPE svg PUBLIC "-//W3C//DTD SVG 1.1//EN"
 "http://www.w3.org/Graphics/SVG/1.1/DTD/svg11.dtd">
<!-- Generated by graphviz version 13.1.2 (20250808.2320)
 -->
<!-- Title: TDD_HARQ_Example Pages: 1 -->
<svg width="1795pt" height="184pt"
 viewBox="0.00 0.00 1795.00 184.00" xmlns="http://www.w3.org/2000/svg" xmlns:xlink="http://www.w3.org/1999/xlink">
<g id="graph0" class="graph" transform="scale(1 1) rotate(0) translate(4 179.5)">
<title>TDD_HARQ_Example</title>
<polygon fill="white" stroke="none" points="-4,4 -4,-179.5 1791,-179.5 1791,4 -4,4"/>
<!-- subfrm -->
<g id="node1" class="node">
<title>subfrm</title>
<polygon fill="none" stroke="black" points="0,-0.5 0,-116.5 1787,-116.5 1787,-0.5 0,-0.5"/>
<text xml:space="preserve" text-anchor="middle" x="43.62" y="-93.5" font-family="Microsoft YaHei" font-size="20.00">D0 🔽</text>
<text xml:space="preserve" text-anchor="middle" x="43.62" y="-66.5" font-family="Microsoft YaHei" font-size="20.00">m = 0</text>
<text xml:space="preserve" text-anchor="middle" x="43.62" y="-39.5" font-family="Microsoft YaHei" font-size="20.00">k_0 = 7</text>
<text xml:space="preserve" text-anchor="middle" x="43.62" y="-12.5" font-family="Microsoft YaHei" font-size="20.00">7</text>
<polyline fill="none" stroke="black" points="87.25,-0.5 87.25,-116.5"/>
<text xml:space="preserve" text-anchor="middle" x="130.88" y="-93.5" font-family="Microsoft YaHei" font-size="20.00">S1 🔄</text>
<text xml:space="preserve" text-anchor="middle" x="130.88" y="-66.5" font-family="Microsoft YaHei" font-size="20.00">m = 1</text>
<text xml:space="preserve" text-anchor="middle" x="130.88" y="-39.5" font-family="Microsoft YaHei" font-size="20.00">k_1 = 6</text>
<text xml:space="preserve" text-anchor="middle" x="130.88" y="-12.5" font-family="Microsoft YaHei" font-size="20.00">7</text>
<polyline fill="none" stroke="black" points="174.5,-0.5 174.5,-116.5"/>
<text xml:space="preserve" text-anchor="middle" x="226.38" y="-93.5" font-family="Microsoft YaHei" font-size="20.00">U2 🔺</text>
<text xml:space="preserve" text-anchor="middle" x="226.38" y="-66.5" font-family="Microsoft YaHei" font-size="20.00">M = 2</text>
<text xml:space="preserve" text-anchor="middle" x="226.38" y="-39.5" font-family="Microsoft YaHei" font-size="20.00">K = [7, 6]</text>
<text xml:space="preserve" text-anchor="middle" x="226.38" y="-12.5" font-family="Microsoft YaHei" font-size="20.00">[5, 6]</text>
<polyline fill="none" stroke="black" points="278.25,-0.5 278.25,-116.5"/>
<text xml:space="preserve" text-anchor="middle" x="318.88" y="-93.5" font-family="Microsoft YaHei" font-size="20.00">U3 🔺</text>
<text xml:space="preserve" text-anchor="middle" x="318.88" y="-66.5" font-family="Microsoft YaHei" font-size="20.00">M = 1</text>
<text xml:space="preserve" text-anchor="middle" x="318.88" y="-39.5" font-family="Microsoft YaHei" font-size="20.00">K = [4]</text>
<text xml:space="preserve" text-anchor="middle" x="318.88" y="-12.5" font-family="Microsoft YaHei" font-size="20.00">[9]</text>
<polyline fill="none" stroke="black" points="359.5,-0.5 359.5,-116.5"/>
<text xml:space="preserve" text-anchor="middle" x="403.12" y="-93.5" font-family="Microsoft YaHei" font-size="20.00">D4 🔽</text>
<text xml:space="preserve" text-anchor="middle" x="403.12" y="-66.5" font-family="Microsoft YaHei" font-size="20.00">m = 0</text>
<text xml:space="preserve" text-anchor="middle" x="403.12" y="-39.5" font-family="Microsoft YaHei" font-size="20.00">k_0 = 4</text>
<text xml:space="preserve" text-anchor="middle" x="403.12" y="-12.5" font-family="Microsoft YaHei" font-size="20.00">8</text>
<polyline fill="none" stroke="black" points="446.75,-0.5 446.75,-116.5"/>
<text xml:space="preserve" text-anchor="middle" x="490.38" y="-93.5" font-family="Microsoft YaHei" font-size="20.00">D5 🔽</text>
<text xml:space="preserve" text-anchor="middle" x="490.38" y="-66.5" font-family="Microsoft YaHei" font-size="20.00">m = 0</text>
<text xml:space="preserve" text-anchor="middle" x="490.38" y="-39.5" font-family="Microsoft YaHei" font-size="20.00">k_0 = 7</text>
<text xml:space="preserve" text-anchor="middle" x="490.38" y="-12.5" font-family="Microsoft YaHei" font-size="20.00">2</text>
<polyline fill="none" stroke="black" points="534,-0.5 534,-116.5"/>
<text xml:space="preserve" text-anchor="middle" x="577.62" y="-93.5" font-family="Microsoft YaHei" font-size="20.00">S6 🔄</text>
<text xml:space="preserve" text-anchor="middle" x="577.62" y="-66.5" font-family="Microsoft YaHei" font-size="20.00">m = 1</text>
<text xml:space="preserve" text-anchor="middle" x="577.62" y="-39.5" font-family="Microsoft YaHei" font-size="20.00">k_1 = 6</text>
<text xml:space="preserve" text-anchor="middle" x="577.62" y="-12.5" font-family="Microsoft YaHei" font-size="20.00">2</text>
<polyline fill="none" stroke="black" points="621.25,-0.5 621.25,-116.5"/>
<text xml:space="preserve" text-anchor="middle" x="673.12" y="-93.5" font-family="Microsoft YaHei" font-size="20.00">U7 🔺</text>
<text xml:space="preserve" text-anchor="middle" x="673.12" y="-66.5" font-family="Microsoft YaHei" font-size="20.00">M = 2</text>
<text xml:space="preserve" text-anchor="middle" x="673.12" y="-39.5" font-family="Microsoft YaHei" font-size="20.00">K = [7, 6]</text>
<text xml:space="preserve" text-anchor="middle" x="673.12" y="-12.5" font-family="Microsoft YaHei" font-size="20.00">[0, 1]</text>
<polyline fill="none" stroke="black" points="725,-0.5 725,-116.5"/>
<text xml:space="preserve" text-anchor="middle" x="765.62" y="-93.5" font-family="Microsoft YaHei" font-size="20.00">U8 🔺</text>
<text xml:space="preserve" text-anchor="middle" x="765.62" y="-66.5" font-family="Microsoft YaHei" font-size="20.00">M = 1</text>
<text xml:space="preserve" text-anchor="middle" x="765.62" y="-39.5" font-family="Microsoft YaHei" font-size="20.00">K = [4]</text>
<text xml:space="preserve" text-anchor="middle" x="765.62" y="-12.5" font-family="Microsoft YaHei" font-size="20.00">[4]</text>
<polyline fill="none" stroke="black" points="806.25,-0.5 806.25,-116.5"/>
<text xml:space="preserve" text-anchor="middle" x="849.88" y="-93.5" font-family="Microsoft YaHei" font-size="20.00">D9 🔽</text>
<text xml:space="preserve" text-anchor="middle" x="849.88" y="-66.5" font-family="Microsoft YaHei" font-size="20.00">m = 0</text>
<text xml:space="preserve" text-anchor="middle" x="849.88" y="-39.5" font-family="Microsoft YaHei" font-size="20.00">k_0 = 4</text>
<text xml:space="preserve" text-anchor="middle" x="849.88" y="-12.5" font-family="Microsoft YaHei" font-size="20.00">3</text>
<polyline fill="none" stroke="black" points="893.5,-0.5 893.5,-116.5"/>
<text xml:space="preserve" text-anchor="middle" x="937.12" y="-93.5" font-family="Microsoft YaHei" font-size="20.00">D0 🔽</text>
<text xml:space="preserve" text-anchor="middle" x="937.12" y="-66.5" font-family="Microsoft YaHei" font-size="20.00">m = 0</text>
<text xml:space="preserve" text-anchor="middle" x="937.12" y="-39.5" font-family="Microsoft YaHei" font-size="20.00">k_0 = 7</text>
<text xml:space="preserve" text-anchor="middle" x="937.12" y="-12.5" font-family="Microsoft YaHei" font-size="20.00">7</text>
<polyline fill="none" stroke="black" points="980.75,-0.5 980.75,-116.5"/>
<text xml:space="preserve" text-anchor="middle" x="1024.38" y="-93.5" font-family="Microsoft YaHei" font-size="20.00">S1 🔄</text>
<text xml:space="preserve" text-anchor="middle" x="1024.38" y="-66.5" font-family="Microsoft YaHei" font-size="20.00">m = 1</text>
<text xml:space="preserve" text-anchor="middle" x="1024.38" y="-39.5" font-family="Microsoft YaHei" font-size="20.00">k_1 = 6</text>
<text xml:space="preserve" text-anchor="middle" x="1024.38" y="-12.5" font-family="Microsoft YaHei" font-size="20.00">7</text>
<polyline fill="none" stroke="black" points="1068,-0.5 1068,-116.5"/>
<text xml:space="preserve" text-anchor="middle" x="1119.88" y="-93.5" font-family="Microsoft YaHei" font-size="20.00">U2 🔺</text>
<text xml:space="preserve" text-anchor="middle" x="1119.88" y="-66.5" font-family="Microsoft YaHei" font-size="20.00">M = 2</text>
<text xml:space="preserve" text-anchor="middle" x="1119.88" y="-39.5" font-family="Microsoft YaHei" font-size="20.00">K = [7, 6]</text>
<text xml:space="preserve" text-anchor="middle" x="1119.88" y="-12.5" font-family="Microsoft YaHei" font-size="20.00">[5, 6]</text>
<polyline fill="none" stroke="black" points="1171.75,-0.5 1171.75,-116.5"/>
<text xml:space="preserve" text-anchor="middle" x="1212.38" y="-93.5" font-family="Microsoft YaHei" font-size="20.00">U3 🔺</text>
<text xml:space="preserve" text-anchor="middle" x="1212.38" y="-66.5" font-family="Microsoft YaHei" font-size="20.00">M = 1</text>
<text xml:space="preserve" text-anchor="middle" x="1212.38" y="-39.5" font-family="Microsoft YaHei" font-size="20.00">K = [4]</text>
<text xml:space="preserve" text-anchor="middle" x="1212.38" y="-12.5" font-family="Microsoft YaHei" font-size="20.00">[9]</text>
<polyline fill="none" stroke="black" points="1253,-0.5 1253,-116.5"/>
<text xml:space="preserve" text-anchor="middle" x="1296.62" y="-93.5" font-family="Microsoft YaHei" font-size="20.00">D4 🔽</text>
<text xml:space="preserve" text-anchor="middle" x="1296.62" y="-66.5" font-family="Microsoft YaHei" font-size="20.00">m = 0</text>
<text xml:space="preserve" text-anchor="middle" x="1296.62" y="-39.5" font-family="Microsoft YaHei" font-size="20.00">k_0 = 4</text>
<text xml:space="preserve" text-anchor="middle" x="1296.62" y="-12.5" font-family="Microsoft YaHei" font-size="20.00">8</text>
<polyline fill="none" stroke="black" points="1340.25,-0.5 1340.25,-116.5"/>
<text xml:space="preserve" text-anchor="middle" x="1383.88" y="-93.5" font-family="Microsoft YaHei" font-size="20.00">D5 🔽</text>
<text xml:space="preserve" text-anchor="middle" x="1383.88" y="-66.5" font-family="Microsoft YaHei" font-size="20.00">m = 0</text>
<text xml:space="preserve" text-anchor="middle" x="1383.88" y="-39.5" font-family="Microsoft YaHei" font-size="20.00">k_0 = 7</text>
<text xml:space="preserve" text-anchor="middle" x="1383.88" y="-12.5" font-family="Microsoft YaHei" font-size="20.00">2</text>
<polyline fill="none" stroke="black" points="1427.5,-0.5 1427.5,-116.5"/>
<text xml:space="preserve" text-anchor="middle" x="1471.12" y="-93.5" font-family="Microsoft YaHei" font-size="20.00">S6 🔄</text>
<text xml:space="preserve" text-anchor="middle" x="1471.12" y="-66.5" font-family="Microsoft YaHei" font-size="20.00">m = 1</text>
<text xml:space="preserve" text-anchor="middle" x="1471.12" y="-39.5" font-family="Microsoft YaHei" font-size="20.00">k_1 = 6</text>
<text xml:space="preserve" text-anchor="middle" x="1471.12" y="-12.5" font-family="Microsoft YaHei" font-size="20.00">2</text>
<polyline fill="none" stroke="black" points="1514.75,-0.5 1514.75,-116.5"/>
<text xml:space="preserve" text-anchor="middle" x="1566.62" y="-93.5" font-family="Microsoft YaHei" font-size="20.00">U7 🔺</text>
<text xml:space="preserve" text-anchor="middle" x="1566.62" y="-66.5" font-family="Microsoft YaHei" font-size="20.00">M = 2</text>
<text xml:space="preserve" text-anchor="middle" x="1566.62" y="-39.5" font-family="Microsoft YaHei" font-size="20.00">K = [7, 6]</text>
<text xml:space="preserve" text-anchor="middle" x="1566.62" y="-12.5" font-family="Microsoft YaHei" font-size="20.00">[0, 1]</text>
<polyline fill="none" stroke="black" points="1618.5,-0.5 1618.5,-116.5"/>
<text xml:space="preserve" text-anchor="middle" x="1659.12" y="-93.5" font-family="Microsoft YaHei" font-size="20.00">U8 🔺</text>
<text xml:space="preserve" text-anchor="middle" x="1659.12" y="-66.5" font-family="Microsoft YaHei" font-size="20.00">M = 1</text>
<text xml:space="preserve" text-anchor="middle" x="1659.12" y="-39.5" font-family="Microsoft YaHei" font-size="20.00">K = [4]</text>
<text xml:space="preserve" text-anchor="middle" x="1659.12" y="-12.5" font-family="Microsoft YaHei" font-size="20.00">[4]</text>
<polyline fill="none" stroke="black" points="1699.75,-0.5 1699.75,-116.5"/>
<text xml:space="preserve" text-anchor="middle" x="1743.38" y="-93.5" font-family="Microsoft YaHei" font-size="20.00">D9 🔽</text>
<text xml:space="preserve" text-anchor="middle" x="1743.38" y="-66.5" font-family="Microsoft YaHei" font-size="20.00">m = 0</text>
<text xml:space="preserve" text-anchor="middle" x="1743.38" y="-39.5" font-family="Microsoft YaHei" font-size="20.00">k_0 = 4</text>
<text xml:space="preserve" text-anchor="middle" x="1743.38" y="-12.5" font-family="Microsoft YaHei" font-size="20.00">3</text>
</g>
<!-- subfrm&#45;&gt;subfrm -->
<g id="edge1" class="edge">
<title>subfrm:n&#45;&gt;subfrm:n</title>
<path fill="none" stroke="blue" stroke-width="2" d="M490.38,-116.5C481.38,-136.5 481.38,-175.5 805.12,-175.5 1078.29,-175.5 1120.97,-147.74 1122.23,-127.05"/>
<polygon fill="blue" stroke="blue" stroke-width="2" points="1125.01,-126.65 1120.54,-119.45 1119.55,-127.87 1125.01,-126.65"/>
</g>
<!-- subfrm&#45;&gt;subfrm -->
<g id="edge2" class="edge">
<title>subfrm:n&#45;&gt;subfrm:n</title>
<path fill="none" stroke="blue" stroke-width="2" d="M577.62,-116.5C568.62,-136.5 568.62,-175.5 848.75,-175.5 1085.11,-175.5 1122.04,-147.74 1122.4,-127.05"/>
<polygon fill="blue" stroke="blue" stroke-width="2" points="1125.17,-126.57 1120.58,-119.44 1119.72,-127.88 1125.17,-126.57"/>
</g>
<!-- subfrm&#45;&gt;subfrm -->
<g id="edge3" class="edge">
<title>subfrm:n&#45;&gt;subfrm:n</title>
<path fill="none" stroke="red" stroke-width="2" stroke-dasharray="5,2" d="M849.88,-116.5C840.88,-136.5 840.88,-175.5 1031.12,-175.5 1191.65,-175.5 1216.73,-147.74 1215.24,-127.05"/>
<polygon fill="red" stroke="red" stroke-width="2" points="1217.97,-126.41 1213.17,-119.42 1212.57,-127.88 1217.97,-126.41"/>
</g>
<!-- subfrm&#45;&gt;subfrm -->
<g id="edge4" class="edge">
<title>subfrm:n&#45;&gt;subfrm:n</title>
<path fill="none" stroke="green" stroke-width="2" stroke-dasharray="5,2" d="M937.12,-116.5C928.12,-136.5 928.12,-175.5 1251.88,-175.5 1525.04,-175.5 1567.72,-147.74 1568.98,-127.05"/>
<polygon fill="green" stroke="green" stroke-width="2" points="1571.76,-126.65 1567.29,-119.45 1566.3,-127.87 1571.76,-126.65"/>
</g>
<!-- subfrm&#45;&gt;subfrm -->
<g id="edge5" class="edge">
<title>subfrm:n&#45;&gt;subfrm:n</title>
<path fill="none" stroke="green" stroke-width="2" stroke-dasharray="5,2" d="M1024.38,-116.5C1015.38,-136.5 1015.38,-175.5 1295.5,-175.5 1531.86,-175.5 1568.79,-147.74 1569.15,-127.05"/>
<polygon fill="green" stroke="green" stroke-width="2" points="1571.92,-126.57 1567.33,-119.44 1566.47,-127.88 1571.92,-126.57"/>
</g>
<!-- subfrm&#45;&gt;subfrm -->
<g id="edge6" class="edge">
<title>subfrm:n&#45;&gt;subfrm:n</title>
<path fill="none" stroke="orange" stroke-width="2" stroke-dasharray="5,2" d="M1296.62,-116.5C1287.62,-136.5 1287.62,-175.5 1477.88,-175.5 1638.4,-175.5 1663.48,-147.74 1661.99,-127.05"/>
<polygon fill="orange" stroke="orange" stroke-width="2" points="1664.72,-126.41 1659.92,-119.42 1659.32,-127.88 1664.72,-126.41"/>
</g>
</g>
</svg>
