<?xml version="1.0" encoding="UTF-8" standalone="no"?>
<!DOCTYPE svg PUBLIC "-//W3C//DTD SVG 1.1//EN"
 "http://www.w3.org/Graphics/SVG/1.1/DTD/svg11.dtd">
<!-- Generated by graphviz version 13.1.2 (20250808.2320)
 -->
<!-- Title: TDD_CONFIG6 Pages: 1 -->
<svg width="1780pt" height="184pt"
 viewBox="0.00 0.00 1780.00 184.00" xmlns="http://www.w3.org/2000/svg" xmlns:xlink="http://www.w3.org/1999/xlink">
<g id="graph0" class="graph" transform="scale(1 1) rotate(0) translate(4 179.5)">
<title>TDD_CONFIG6</title>
<polygon fill="white" stroke="none" points="-4,4 -4,-179.5 1776.25,-179.5 1776.25,4 -4,4"/>
<!-- subfrm -->
<g id="node1" class="node">
<title>subfrm</title>
<polygon fill="none" stroke="black" points="0,-0.5 0,-116.5 1772.25,-116.5 1772.25,-0.5 0,-0.5"/>
<text xml:space="preserve" text-anchor="middle" x="43.62" y="-93.5" font-family="Microsoft YaHei" font-size="20.00">D9 🔽</text>
<text xml:space="preserve" text-anchor="middle" x="43.62" y="-66.5" font-family="Microsoft YaHei" font-size="20.00">m = 0</text>
<text xml:space="preserve" text-anchor="middle" x="43.62" y="-39.5" font-family="Microsoft YaHei" font-size="20.00">k_0 = 5</text>
<text xml:space="preserve" text-anchor="middle" x="43.62" y="-12.5" font-family="Microsoft YaHei" font-size="20.00">4</text>
<polyline fill="none" stroke="black" points="87.25,-0.5 87.25,-116.5"/>
<text xml:space="preserve" text-anchor="middle" x="130.88" y="-93.5" font-family="Microsoft YaHei" font-size="20.00">D0 🔽</text>
<text xml:space="preserve" text-anchor="middle" x="130.88" y="-66.5" font-family="Microsoft YaHei" font-size="20.00">m = 0</text>
<text xml:space="preserve" text-anchor="middle" x="130.88" y="-39.5" font-family="Microsoft YaHei" font-size="20.00">k_0 = 7</text>
<text xml:space="preserve" text-anchor="middle" x="130.88" y="-12.5" font-family="Microsoft YaHei" font-size="20.00">7</text>
<polyline fill="none" stroke="black" points="174.5,-0.5 174.5,-116.5"/>
<text xml:space="preserve" text-anchor="middle" x="218.12" y="-93.5" font-family="Microsoft YaHei" font-size="20.00">S1 🔄</text>
<text xml:space="preserve" text-anchor="middle" x="218.12" y="-66.5" font-family="Microsoft YaHei" font-size="20.00">m = 0</text>
<text xml:space="preserve" text-anchor="middle" x="218.12" y="-39.5" font-family="Microsoft YaHei" font-size="20.00">k_0 = 7</text>
<text xml:space="preserve" text-anchor="middle" x="218.12" y="-12.5" font-family="Microsoft YaHei" font-size="20.00">8</text>
<polyline fill="none" stroke="black" points="261.75,-0.5 261.75,-116.5"/>
<text xml:space="preserve" text-anchor="middle" x="302.38" y="-93.5" font-family="Microsoft YaHei" font-size="20.00">U2 🔺</text>
<text xml:space="preserve" text-anchor="middle" x="302.38" y="-66.5" font-family="Microsoft YaHei" font-size="20.00">M = 1</text>
<text xml:space="preserve" text-anchor="middle" x="302.38" y="-39.5" font-family="Microsoft YaHei" font-size="20.00">K = [7]</text>
<text xml:space="preserve" text-anchor="middle" x="302.38" y="-12.5" font-family="Microsoft YaHei" font-size="20.00">[5]</text>
<polyline fill="none" stroke="black" points="343,-0.5 343,-116.5"/>
<text xml:space="preserve" text-anchor="middle" x="383.62" y="-93.5" font-family="Microsoft YaHei" font-size="20.00">U3 🔺</text>
<text xml:space="preserve" text-anchor="middle" x="383.62" y="-66.5" font-family="Microsoft YaHei" font-size="20.00">M = 1</text>
<text xml:space="preserve" text-anchor="middle" x="383.62" y="-39.5" font-family="Microsoft YaHei" font-size="20.00">K = [7]</text>
<text xml:space="preserve" text-anchor="middle" x="383.62" y="-12.5" font-family="Microsoft YaHei" font-size="20.00">[6]</text>
<polyline fill="none" stroke="black" points="424.25,-0.5 424.25,-116.5"/>
<text xml:space="preserve" text-anchor="middle" x="464.88" y="-93.5" font-family="Microsoft YaHei" font-size="20.00">U4 🔺</text>
<text xml:space="preserve" text-anchor="middle" x="464.88" y="-66.5" font-family="Microsoft YaHei" font-size="20.00">M = 1</text>
<text xml:space="preserve" text-anchor="middle" x="464.88" y="-39.5" font-family="Microsoft YaHei" font-size="20.00">K = [5]</text>
<text xml:space="preserve" text-anchor="middle" x="464.88" y="-12.5" font-family="Microsoft YaHei" font-size="20.00">[9]</text>
<polyline fill="none" stroke="black" points="505.5,-0.5 505.5,-116.5"/>
<text xml:space="preserve" text-anchor="middle" x="549.12" y="-93.5" font-family="Microsoft YaHei" font-size="20.00">D5 🔽</text>
<text xml:space="preserve" text-anchor="middle" x="549.12" y="-66.5" font-family="Microsoft YaHei" font-size="20.00">m = 0</text>
<text xml:space="preserve" text-anchor="middle" x="549.12" y="-39.5" font-family="Microsoft YaHei" font-size="20.00">k_0 = 7</text>
<text xml:space="preserve" text-anchor="middle" x="549.12" y="-12.5" font-family="Microsoft YaHei" font-size="20.00">2</text>
<polyline fill="none" stroke="black" points="592.75,-0.5 592.75,-116.5"/>
<text xml:space="preserve" text-anchor="middle" x="636.38" y="-93.5" font-family="Microsoft YaHei" font-size="20.00">S6 🔄</text>
<text xml:space="preserve" text-anchor="middle" x="636.38" y="-66.5" font-family="Microsoft YaHei" font-size="20.00">m = 0</text>
<text xml:space="preserve" text-anchor="middle" x="636.38" y="-39.5" font-family="Microsoft YaHei" font-size="20.00">k_0 = 7</text>
<text xml:space="preserve" text-anchor="middle" x="636.38" y="-12.5" font-family="Microsoft YaHei" font-size="20.00">3</text>
<polyline fill="none" stroke="black" points="680,-0.5 680,-116.5"/>
<text xml:space="preserve" text-anchor="middle" x="720.62" y="-93.5" font-family="Microsoft YaHei" font-size="20.00">U7 🔺</text>
<text xml:space="preserve" text-anchor="middle" x="720.62" y="-66.5" font-family="Microsoft YaHei" font-size="20.00">M = 1</text>
<text xml:space="preserve" text-anchor="middle" x="720.62" y="-39.5" font-family="Microsoft YaHei" font-size="20.00">K = [7]</text>
<text xml:space="preserve" text-anchor="middle" x="720.62" y="-12.5" font-family="Microsoft YaHei" font-size="20.00">[0]</text>
<polyline fill="none" stroke="black" points="761.25,-0.5 761.25,-116.5"/>
<text xml:space="preserve" text-anchor="middle" x="801.88" y="-93.5" font-family="Microsoft YaHei" font-size="20.00">U8 🔺</text>
<text xml:space="preserve" text-anchor="middle" x="801.88" y="-66.5" font-family="Microsoft YaHei" font-size="20.00">M = 1</text>
<text xml:space="preserve" text-anchor="middle" x="801.88" y="-39.5" font-family="Microsoft YaHei" font-size="20.00">K = [7]</text>
<text xml:space="preserve" text-anchor="middle" x="801.88" y="-12.5" font-family="Microsoft YaHei" font-size="20.00">[1]</text>
<polyline fill="none" stroke="black" points="842.5,-0.5 842.5,-116.5"/>
<text xml:space="preserve" text-anchor="middle" x="886.12" y="-93.5" font-family="Microsoft YaHei" font-size="20.00">D9 🔽</text>
<text xml:space="preserve" text-anchor="middle" x="886.12" y="-66.5" font-family="Microsoft YaHei" font-size="20.00">m = 0</text>
<text xml:space="preserve" text-anchor="middle" x="886.12" y="-39.5" font-family="Microsoft YaHei" font-size="20.00">k_0 = 5</text>
<text xml:space="preserve" text-anchor="middle" x="886.12" y="-12.5" font-family="Microsoft YaHei" font-size="20.00">4</text>
<polyline fill="none" stroke="black" points="929.75,-0.5 929.75,-116.5"/>
<text xml:space="preserve" text-anchor="middle" x="973.38" y="-93.5" font-family="Microsoft YaHei" font-size="20.00">D0 🔽</text>
<text xml:space="preserve" text-anchor="middle" x="973.38" y="-66.5" font-family="Microsoft YaHei" font-size="20.00">m = 0</text>
<text xml:space="preserve" text-anchor="middle" x="973.38" y="-39.5" font-family="Microsoft YaHei" font-size="20.00">k_0 = 7</text>
<text xml:space="preserve" text-anchor="middle" x="973.38" y="-12.5" font-family="Microsoft YaHei" font-size="20.00">7</text>
<polyline fill="none" stroke="black" points="1017,-0.5 1017,-116.5"/>
<text xml:space="preserve" text-anchor="middle" x="1060.62" y="-93.5" font-family="Microsoft YaHei" font-size="20.00">S1 🔄</text>
<text xml:space="preserve" text-anchor="middle" x="1060.62" y="-66.5" font-family="Microsoft YaHei" font-size="20.00">m = 0</text>
<text xml:space="preserve" text-anchor="middle" x="1060.62" y="-39.5" font-family="Microsoft YaHei" font-size="20.00">k_0 = 7</text>
<text xml:space="preserve" text-anchor="middle" x="1060.62" y="-12.5" font-family="Microsoft YaHei" font-size="20.00">8</text>
<polyline fill="none" stroke="black" points="1104.25,-0.5 1104.25,-116.5"/>
<text xml:space="preserve" text-anchor="middle" x="1144.88" y="-93.5" font-family="Microsoft YaHei" font-size="20.00">U2 🔺</text>
<text xml:space="preserve" text-anchor="middle" x="1144.88" y="-66.5" font-family="Microsoft YaHei" font-size="20.00">M = 1</text>
<text xml:space="preserve" text-anchor="middle" x="1144.88" y="-39.5" font-family="Microsoft YaHei" font-size="20.00">K = [7]</text>
<text xml:space="preserve" text-anchor="middle" x="1144.88" y="-12.5" font-family="Microsoft YaHei" font-size="20.00">[5]</text>
<polyline fill="none" stroke="black" points="1185.5,-0.5 1185.5,-116.5"/>
<text xml:space="preserve" text-anchor="middle" x="1226.12" y="-93.5" font-family="Microsoft YaHei" font-size="20.00">U3 🔺</text>
<text xml:space="preserve" text-anchor="middle" x="1226.12" y="-66.5" font-family="Microsoft YaHei" font-size="20.00">M = 1</text>
<text xml:space="preserve" text-anchor="middle" x="1226.12" y="-39.5" font-family="Microsoft YaHei" font-size="20.00">K = [7]</text>
<text xml:space="preserve" text-anchor="middle" x="1226.12" y="-12.5" font-family="Microsoft YaHei" font-size="20.00">[6]</text>
<polyline fill="none" stroke="black" points="1266.75,-0.5 1266.75,-116.5"/>
<text xml:space="preserve" text-anchor="middle" x="1307.38" y="-93.5" font-family="Microsoft YaHei" font-size="20.00">U4 🔺</text>
<text xml:space="preserve" text-anchor="middle" x="1307.38" y="-66.5" font-family="Microsoft YaHei" font-size="20.00">M = 1</text>
<text xml:space="preserve" text-anchor="middle" x="1307.38" y="-39.5" font-family="Microsoft YaHei" font-size="20.00">K = [5]</text>
<text xml:space="preserve" text-anchor="middle" x="1307.38" y="-12.5" font-family="Microsoft YaHei" font-size="20.00">[9]</text>
<polyline fill="none" stroke="black" points="1348,-0.5 1348,-116.5"/>
<text xml:space="preserve" text-anchor="middle" x="1391.62" y="-93.5" font-family="Microsoft YaHei" font-size="20.00">D5 🔽</text>
<text xml:space="preserve" text-anchor="middle" x="1391.62" y="-66.5" font-family="Microsoft YaHei" font-size="20.00">m = 0</text>
<text xml:space="preserve" text-anchor="middle" x="1391.62" y="-39.5" font-family="Microsoft YaHei" font-size="20.00">k_0 = 7</text>
<text xml:space="preserve" text-anchor="middle" x="1391.62" y="-12.5" font-family="Microsoft YaHei" font-size="20.00">2</text>
<polyline fill="none" stroke="black" points="1435.25,-0.5 1435.25,-116.5"/>
<text xml:space="preserve" text-anchor="middle" x="1478.88" y="-93.5" font-family="Microsoft YaHei" font-size="20.00">S6 🔄</text>
<text xml:space="preserve" text-anchor="middle" x="1478.88" y="-66.5" font-family="Microsoft YaHei" font-size="20.00">m = 0</text>
<text xml:space="preserve" text-anchor="middle" x="1478.88" y="-39.5" font-family="Microsoft YaHei" font-size="20.00">k_0 = 7</text>
<text xml:space="preserve" text-anchor="middle" x="1478.88" y="-12.5" font-family="Microsoft YaHei" font-size="20.00">3</text>
<polyline fill="none" stroke="black" points="1522.5,-0.5 1522.5,-116.5"/>
<text xml:space="preserve" text-anchor="middle" x="1563.12" y="-93.5" font-family="Microsoft YaHei" font-size="20.00">U7 🔺</text>
<text xml:space="preserve" text-anchor="middle" x="1563.12" y="-66.5" font-family="Microsoft YaHei" font-size="20.00">M = 1</text>
<text xml:space="preserve" text-anchor="middle" x="1563.12" y="-39.5" font-family="Microsoft YaHei" font-size="20.00">K = [7]</text>
<text xml:space="preserve" text-anchor="middle" x="1563.12" y="-12.5" font-family="Microsoft YaHei" font-size="20.00">[0]</text>
<polyline fill="none" stroke="black" points="1603.75,-0.5 1603.75,-116.5"/>
<text xml:space="preserve" text-anchor="middle" x="1644.38" y="-93.5" font-family="Microsoft YaHei" font-size="20.00">U8 🔺</text>
<text xml:space="preserve" text-anchor="middle" x="1644.38" y="-66.5" font-family="Microsoft YaHei" font-size="20.00">M = 1</text>
<text xml:space="preserve" text-anchor="middle" x="1644.38" y="-39.5" font-family="Microsoft YaHei" font-size="20.00">K = [7]</text>
<text xml:space="preserve" text-anchor="middle" x="1644.38" y="-12.5" font-family="Microsoft YaHei" font-size="20.00">[1]</text>
<polyline fill="none" stroke="black" points="1685,-0.5 1685,-116.5"/>
<text xml:space="preserve" text-anchor="middle" x="1728.62" y="-93.5" font-family="Microsoft YaHei" font-size="20.00">D9 🔽</text>
<text xml:space="preserve" text-anchor="middle" x="1728.62" y="-66.5" font-family="Microsoft YaHei" font-size="20.00">m = 0</text>
<text xml:space="preserve" text-anchor="middle" x="1728.62" y="-39.5" font-family="Microsoft YaHei" font-size="20.00">k_0 = 5</text>
<text xml:space="preserve" text-anchor="middle" x="1728.62" y="-12.5" font-family="Microsoft YaHei" font-size="20.00">4</text>
</g>
<!-- subfrm&#45;&gt;subfrm -->
<g id="edge1" class="edge">
<title>subfrm:n&#45;&gt;subfrm:n</title>
<path fill="none" stroke="blue" stroke-width="2" d="M549.12,-116.5C540.12,-136.5 540.12,-175.5 847,-175.5 1105.93,-175.5 1146.38,-147.74 1147.3,-127.05"/>
<polygon fill="blue" stroke="blue" stroke-width="2" points="1150.07,-126.62 1145.55,-119.45 1144.62,-127.87 1150.07,-126.62"/>
</g>
<!-- subfrm&#45;&gt;subfrm -->
<g id="edge2" class="edge">
<title>subfrm:n&#45;&gt;subfrm:n</title>
<path fill="none" stroke="red" stroke-width="2" stroke-dasharray="5,2" d="M636.38,-116.5C627.38,-136.5 627.38,-175.5 931.25,-175.5 1187.64,-175.5 1227.71,-147.74 1228.56,-127.05"/>
<polygon fill="red" stroke="red" stroke-width="2" points="1231.33,-126.61 1226.81,-119.45 1225.88,-127.87 1231.33,-126.61"/>
</g>
<!-- subfrm&#45;&gt;subfrm -->
<g id="edge3" class="edge">
<title>subfrm:n&#45;&gt;subfrm:n</title>
<path fill="none" stroke="green" stroke-width="2" stroke-dasharray="5,2" d="M886.12,-116.5C877.12,-136.5 877.12,-175.5 1096.75,-175.5 1282.06,-175.5 1311.01,-147.74 1310.13,-127.05"/>
<polygon fill="green" stroke="green" stroke-width="2" points="1312.87,-126.46 1308.14,-119.43 1307.45,-127.88 1312.87,-126.46"/>
</g>
<!-- subfrm&#45;&gt;subfrm -->
<g id="edge4" class="edge">
<title>subfrm:n&#45;&gt;subfrm:n</title>
<path fill="none" stroke="orange" stroke-width="2" stroke-dasharray="5,2" d="M973.38,-116.5C964.38,-136.5 964.38,-175.5 1268.25,-175.5 1524.64,-175.5 1564.71,-147.74 1565.56,-127.05"/>
<polygon fill="orange" stroke="orange" stroke-width="2" points="1568.33,-126.61 1563.81,-119.45 1562.88,-127.87 1568.33,-126.61"/>
</g>
<!-- subfrm&#45;&gt;subfrm -->
<g id="edge5" class="edge">
<title>subfrm:n&#45;&gt;subfrm:n</title>
<path fill="none" stroke="darkviolet" stroke-width="2" stroke-dasharray="5,2" d="M1060.62,-116.5C1051.62,-136.5 1051.62,-175.5 1352.5,-175.5 1606.36,-175.5 1646.03,-147.74 1646.82,-127.05"/>
<polygon fill="darkviolet" stroke="darkviolet" stroke-width="2" points="1649.59,-126.61 1645.06,-119.45 1644.14,-127.87 1649.59,-126.61"/>
</g>
</g>
</svg>
