<?xml version="1.0" encoding="UTF-8" standalone="no"?>
<!DOCTYPE svg PUBLIC "-//W3C//DTD SVG 1.1//EN"
 "http://www.w3.org/Graphics/SVG/1.1/DTD/svg11.dtd">
<!-- Generated by graphviz version 13.1.2 (20250808.2320)
 -->
<!-- Title: TDD_CONFIG2 Pages: 1 -->
<svg width="2086pt" height="184pt"
 viewBox="0.00 0.00 2086.00 184.00" xmlns="http://www.w3.org/2000/svg" xmlns:xlink="http://www.w3.org/1999/xlink">
<g id="graph0" class="graph" transform="scale(1 1) rotate(0) translate(4 179.5)">
<title>TDD_CONFIG2</title>
<polygon fill="white" stroke="none" points="-4,4 -4,-179.5 2082.25,-179.5 2082.25,4 -4,4"/>
<!-- subfrm -->
<g id="node1" class="node">
<title>subfrm</title>
<polygon fill="none" stroke="black" points="0,-0.5 0,-116.5 2078.25,-116.5 2078.25,-0.5 0,-0.5"/>
<text xml:space="preserve" text-anchor="middle" x="43.62" y="-93.5" font-family="Microsoft YaHei" font-size="20.00">D9 🔽</text>
<text xml:space="preserve" text-anchor="middle" x="43.62" y="-66.5" font-family="Microsoft YaHei" font-size="20.00">m = 0</text>
<text xml:space="preserve" text-anchor="middle" x="43.62" y="-39.5" font-family="Microsoft YaHei" font-size="20.00">k_0 = 8</text>
<text xml:space="preserve" text-anchor="middle" x="43.62" y="-12.5" font-family="Microsoft YaHei" font-size="20.00">7</text>
<polyline fill="none" stroke="black" points="87.25,-0.5 87.25,-116.5"/>
<text xml:space="preserve" text-anchor="middle" x="130.88" y="-93.5" font-family="Microsoft YaHei" font-size="20.00">D0 🔽</text>
<text xml:space="preserve" text-anchor="middle" x="130.88" y="-66.5" font-family="Microsoft YaHei" font-size="20.00">m = 1</text>
<text xml:space="preserve" text-anchor="middle" x="130.88" y="-39.5" font-family="Microsoft YaHei" font-size="20.00">k_1 = 7</text>
<text xml:space="preserve" text-anchor="middle" x="130.88" y="-12.5" font-family="Microsoft YaHei" font-size="20.00">7</text>
<polyline fill="none" stroke="black" points="174.5,-0.5 174.5,-116.5"/>
<text xml:space="preserve" text-anchor="middle" x="218.12" y="-93.5" font-family="Microsoft YaHei" font-size="20.00">S1 🔄</text>
<text xml:space="preserve" text-anchor="middle" x="218.12" y="-66.5" font-family="Microsoft YaHei" font-size="20.00">m = 3</text>
<text xml:space="preserve" text-anchor="middle" x="218.12" y="-39.5" font-family="Microsoft YaHei" font-size="20.00">k_3 = 6</text>
<text xml:space="preserve" text-anchor="middle" x="218.12" y="-12.5" font-family="Microsoft YaHei" font-size="20.00">7</text>
<polyline fill="none" stroke="black" points="261.75,-0.5 261.75,-116.5"/>
<text xml:space="preserve" text-anchor="middle" x="336.12" y="-93.5" font-family="Microsoft YaHei" font-size="20.00">U2 🔺</text>
<text xml:space="preserve" text-anchor="middle" x="336.12" y="-66.5" font-family="Microsoft YaHei" font-size="20.00">M = 4</text>
<text xml:space="preserve" text-anchor="middle" x="336.12" y="-39.5" font-family="Microsoft YaHei" font-size="20.00">K = [8, 7, 4, 6]</text>
<text xml:space="preserve" text-anchor="middle" x="336.12" y="-12.5" font-family="Microsoft YaHei" font-size="20.00">[4, 5, 8, 6]</text>
<polyline fill="none" stroke="black" points="410.5,-0.5 410.5,-116.5"/>
<text xml:space="preserve" text-anchor="middle" x="454.12" y="-93.5" font-family="Microsoft YaHei" font-size="20.00">D3 🔽</text>
<text xml:space="preserve" text-anchor="middle" x="454.12" y="-66.5" font-family="Microsoft YaHei" font-size="20.00">m = 2</text>
<text xml:space="preserve" text-anchor="middle" x="454.12" y="-39.5" font-family="Microsoft YaHei" font-size="20.00">k_2 = 4</text>
<text xml:space="preserve" text-anchor="middle" x="454.12" y="-12.5" font-family="Microsoft YaHei" font-size="20.00">7</text>
<polyline fill="none" stroke="black" points="497.75,-0.5 497.75,-116.5"/>
<text xml:space="preserve" text-anchor="middle" x="541.38" y="-93.5" font-family="Microsoft YaHei" font-size="20.00">D4 🔽</text>
<text xml:space="preserve" text-anchor="middle" x="541.38" y="-66.5" font-family="Microsoft YaHei" font-size="20.00">m = 0</text>
<text xml:space="preserve" text-anchor="middle" x="541.38" y="-39.5" font-family="Microsoft YaHei" font-size="20.00">k_0 = 8</text>
<text xml:space="preserve" text-anchor="middle" x="541.38" y="-12.5" font-family="Microsoft YaHei" font-size="20.00">2</text>
<polyline fill="none" stroke="black" points="585,-0.5 585,-116.5"/>
<text xml:space="preserve" text-anchor="middle" x="628.62" y="-93.5" font-family="Microsoft YaHei" font-size="20.00">D5 🔽</text>
<text xml:space="preserve" text-anchor="middle" x="628.62" y="-66.5" font-family="Microsoft YaHei" font-size="20.00">m = 1</text>
<text xml:space="preserve" text-anchor="middle" x="628.62" y="-39.5" font-family="Microsoft YaHei" font-size="20.00">k_1 = 7</text>
<text xml:space="preserve" text-anchor="middle" x="628.62" y="-12.5" font-family="Microsoft YaHei" font-size="20.00">2</text>
<polyline fill="none" stroke="black" points="672.25,-0.5 672.25,-116.5"/>
<text xml:space="preserve" text-anchor="middle" x="715.88" y="-93.5" font-family="Microsoft YaHei" font-size="20.00">S6 🔄</text>
<text xml:space="preserve" text-anchor="middle" x="715.88" y="-66.5" font-family="Microsoft YaHei" font-size="20.00">m = 3</text>
<text xml:space="preserve" text-anchor="middle" x="715.88" y="-39.5" font-family="Microsoft YaHei" font-size="20.00">k_3 = 6</text>
<text xml:space="preserve" text-anchor="middle" x="715.88" y="-12.5" font-family="Microsoft YaHei" font-size="20.00">2</text>
<polyline fill="none" stroke="black" points="759.5,-0.5 759.5,-116.5"/>
<text xml:space="preserve" text-anchor="middle" x="833.88" y="-93.5" font-family="Microsoft YaHei" font-size="20.00">U7 🔺</text>
<text xml:space="preserve" text-anchor="middle" x="833.88" y="-66.5" font-family="Microsoft YaHei" font-size="20.00">M = 4</text>
<text xml:space="preserve" text-anchor="middle" x="833.88" y="-39.5" font-family="Microsoft YaHei" font-size="20.00">K = [8, 7, 4, 6]</text>
<text xml:space="preserve" text-anchor="middle" x="833.88" y="-12.5" font-family="Microsoft YaHei" font-size="20.00">[9, 0, 3, 1]</text>
<polyline fill="none" stroke="black" points="908.25,-0.5 908.25,-116.5"/>
<text xml:space="preserve" text-anchor="middle" x="951.88" y="-93.5" font-family="Microsoft YaHei" font-size="20.00">D8 🔽</text>
<text xml:space="preserve" text-anchor="middle" x="951.88" y="-66.5" font-family="Microsoft YaHei" font-size="20.00">m = 2</text>
<text xml:space="preserve" text-anchor="middle" x="951.88" y="-39.5" font-family="Microsoft YaHei" font-size="20.00">k_2 = 4</text>
<text xml:space="preserve" text-anchor="middle" x="951.88" y="-12.5" font-family="Microsoft YaHei" font-size="20.00">2</text>
<polyline fill="none" stroke="black" points="995.5,-0.5 995.5,-116.5"/>
<text xml:space="preserve" text-anchor="middle" x="1039.12" y="-93.5" font-family="Microsoft YaHei" font-size="20.00">D9 🔽</text>
<text xml:space="preserve" text-anchor="middle" x="1039.12" y="-66.5" font-family="Microsoft YaHei" font-size="20.00">m = 0</text>
<text xml:space="preserve" text-anchor="middle" x="1039.12" y="-39.5" font-family="Microsoft YaHei" font-size="20.00">k_0 = 8</text>
<text xml:space="preserve" text-anchor="middle" x="1039.12" y="-12.5" font-family="Microsoft YaHei" font-size="20.00">7</text>
<polyline fill="none" stroke="black" points="1082.75,-0.5 1082.75,-116.5"/>
<text xml:space="preserve" text-anchor="middle" x="1126.38" y="-93.5" font-family="Microsoft YaHei" font-size="20.00">D0 🔽</text>
<text xml:space="preserve" text-anchor="middle" x="1126.38" y="-66.5" font-family="Microsoft YaHei" font-size="20.00">m = 1</text>
<text xml:space="preserve" text-anchor="middle" x="1126.38" y="-39.5" font-family="Microsoft YaHei" font-size="20.00">k_1 = 7</text>
<text xml:space="preserve" text-anchor="middle" x="1126.38" y="-12.5" font-family="Microsoft YaHei" font-size="20.00">7</text>
<polyline fill="none" stroke="black" points="1170,-0.5 1170,-116.5"/>
<text xml:space="preserve" text-anchor="middle" x="1213.62" y="-93.5" font-family="Microsoft YaHei" font-size="20.00">S1 🔄</text>
<text xml:space="preserve" text-anchor="middle" x="1213.62" y="-66.5" font-family="Microsoft YaHei" font-size="20.00">m = 3</text>
<text xml:space="preserve" text-anchor="middle" x="1213.62" y="-39.5" font-family="Microsoft YaHei" font-size="20.00">k_3 = 6</text>
<text xml:space="preserve" text-anchor="middle" x="1213.62" y="-12.5" font-family="Microsoft YaHei" font-size="20.00">7</text>
<polyline fill="none" stroke="black" points="1257.25,-0.5 1257.25,-116.5"/>
<text xml:space="preserve" text-anchor="middle" x="1331.62" y="-93.5" font-family="Microsoft YaHei" font-size="20.00">U2 🔺</text>
<text xml:space="preserve" text-anchor="middle" x="1331.62" y="-66.5" font-family="Microsoft YaHei" font-size="20.00">M = 4</text>
<text xml:space="preserve" text-anchor="middle" x="1331.62" y="-39.5" font-family="Microsoft YaHei" font-size="20.00">K = [8, 7, 4, 6]</text>
<text xml:space="preserve" text-anchor="middle" x="1331.62" y="-12.5" font-family="Microsoft YaHei" font-size="20.00">[4, 5, 8, 6]</text>
<polyline fill="none" stroke="black" points="1406,-0.5 1406,-116.5"/>
<text xml:space="preserve" text-anchor="middle" x="1449.62" y="-93.5" font-family="Microsoft YaHei" font-size="20.00">D3 🔽</text>
<text xml:space="preserve" text-anchor="middle" x="1449.62" y="-66.5" font-family="Microsoft YaHei" font-size="20.00">m = 2</text>
<text xml:space="preserve" text-anchor="middle" x="1449.62" y="-39.5" font-family="Microsoft YaHei" font-size="20.00">k_2 = 4</text>
<text xml:space="preserve" text-anchor="middle" x="1449.62" y="-12.5" font-family="Microsoft YaHei" font-size="20.00">7</text>
<polyline fill="none" stroke="black" points="1493.25,-0.5 1493.25,-116.5"/>
<text xml:space="preserve" text-anchor="middle" x="1536.88" y="-93.5" font-family="Microsoft YaHei" font-size="20.00">D4 🔽</text>
<text xml:space="preserve" text-anchor="middle" x="1536.88" y="-66.5" font-family="Microsoft YaHei" font-size="20.00">m = 0</text>
<text xml:space="preserve" text-anchor="middle" x="1536.88" y="-39.5" font-family="Microsoft YaHei" font-size="20.00">k_0 = 8</text>
<text xml:space="preserve" text-anchor="middle" x="1536.88" y="-12.5" font-family="Microsoft YaHei" font-size="20.00">2</text>
<polyline fill="none" stroke="black" points="1580.5,-0.5 1580.5,-116.5"/>
<text xml:space="preserve" text-anchor="middle" x="1624.12" y="-93.5" font-family="Microsoft YaHei" font-size="20.00">D5 🔽</text>
<text xml:space="preserve" text-anchor="middle" x="1624.12" y="-66.5" font-family="Microsoft YaHei" font-size="20.00">m = 1</text>
<text xml:space="preserve" text-anchor="middle" x="1624.12" y="-39.5" font-family="Microsoft YaHei" font-size="20.00">k_1 = 7</text>
<text xml:space="preserve" text-anchor="middle" x="1624.12" y="-12.5" font-family="Microsoft YaHei" font-size="20.00">2</text>
<polyline fill="none" stroke="black" points="1667.75,-0.5 1667.75,-116.5"/>
<text xml:space="preserve" text-anchor="middle" x="1711.38" y="-93.5" font-family="Microsoft YaHei" font-size="20.00">S6 🔄</text>
<text xml:space="preserve" text-anchor="middle" x="1711.38" y="-66.5" font-family="Microsoft YaHei" font-size="20.00">m = 3</text>
<text xml:space="preserve" text-anchor="middle" x="1711.38" y="-39.5" font-family="Microsoft YaHei" font-size="20.00">k_3 = 6</text>
<text xml:space="preserve" text-anchor="middle" x="1711.38" y="-12.5" font-family="Microsoft YaHei" font-size="20.00">2</text>
<polyline fill="none" stroke="black" points="1755,-0.5 1755,-116.5"/>
<text xml:space="preserve" text-anchor="middle" x="1829.38" y="-93.5" font-family="Microsoft YaHei" font-size="20.00">U7 🔺</text>
<text xml:space="preserve" text-anchor="middle" x="1829.38" y="-66.5" font-family="Microsoft YaHei" font-size="20.00">M = 4</text>
<text xml:space="preserve" text-anchor="middle" x="1829.38" y="-39.5" font-family="Microsoft YaHei" font-size="20.00">K = [8, 7, 4, 6]</text>
<text xml:space="preserve" text-anchor="middle" x="1829.38" y="-12.5" font-family="Microsoft YaHei" font-size="20.00">[9, 0, 3, 1]</text>
<polyline fill="none" stroke="black" points="1903.75,-0.5 1903.75,-116.5"/>
<text xml:space="preserve" text-anchor="middle" x="1947.38" y="-93.5" font-family="Microsoft YaHei" font-size="20.00">D8 🔽</text>
<text xml:space="preserve" text-anchor="middle" x="1947.38" y="-66.5" font-family="Microsoft YaHei" font-size="20.00">m = 2</text>
<text xml:space="preserve" text-anchor="middle" x="1947.38" y="-39.5" font-family="Microsoft YaHei" font-size="20.00">k_2 = 4</text>
<text xml:space="preserve" text-anchor="middle" x="1947.38" y="-12.5" font-family="Microsoft YaHei" font-size="20.00">2</text>
<polyline fill="none" stroke="black" points="1991,-0.5 1991,-116.5"/>
<text xml:space="preserve" text-anchor="middle" x="2034.62" y="-93.5" font-family="Microsoft YaHei" font-size="20.00">D9 🔽</text>
<text xml:space="preserve" text-anchor="middle" x="2034.62" y="-66.5" font-family="Microsoft YaHei" font-size="20.00">m = 0</text>
<text xml:space="preserve" text-anchor="middle" x="2034.62" y="-39.5" font-family="Microsoft YaHei" font-size="20.00">k_0 = 8</text>
<text xml:space="preserve" text-anchor="middle" x="2034.62" y="-12.5" font-family="Microsoft YaHei" font-size="20.00">7</text>
</g>
<!-- subfrm&#45;&gt;subfrm -->
<g id="edge1" class="edge">
<title>subfrm:n&#45;&gt;subfrm:n</title>
<path fill="none" stroke="blue" stroke-width="2" d="M541.38,-116.5C532.38,-136.5 532.38,-175.5 936.5,-175.5 1275.9,-175.5 1330.26,-147.99 1333.63,-127.33"/>
<polygon fill="blue" stroke="blue" stroke-width="2" points="1336.39,-126.83 1332.18,-119.48 1330.88,-127.85 1336.39,-126.83"/>
</g>
<!-- subfrm&#45;&gt;subfrm -->
<g id="edge2" class="edge">
<title>subfrm:n&#45;&gt;subfrm:n</title>
<path fill="none" stroke="blue" stroke-width="2" d="M628.62,-116.5C619.62,-136.5 619.62,-175.5 980.12,-175.5 1284.3,-175.5 1331.82,-147.74 1333.84,-127.05"/>
<polygon fill="blue" stroke="blue" stroke-width="2" points="1336.64,-126.71 1332.25,-119.46 1331.16,-127.87 1336.64,-126.71"/>
</g>
<!-- subfrm&#45;&gt;subfrm -->
<g id="edge3" class="edge">
<title>subfrm:n&#45;&gt;subfrm:n</title>
<path fill="none" stroke="blue" stroke-width="2" d="M951.88,-116.5C942.88,-136.5 942.88,-175.5 1141.75,-175.5 1309.55,-175.5 1335.77,-147.74 1334.46,-127.05"/>
<polygon fill="blue" stroke="blue" stroke-width="2" points="1337.19,-126.42 1332.41,-119.42 1331.78,-127.88 1337.19,-126.42"/>
</g>
<!-- subfrm&#45;&gt;subfrm -->
<g id="edge4" class="edge">
<title>subfrm:n&#45;&gt;subfrm:n</title>
<path fill="none" stroke="blue" stroke-width="2" d="M715.88,-116.5C706.88,-136.5 706.88,-175.5 1023.75,-175.5 1291.11,-175.5 1332.89,-147.74 1334.01,-127.05"/>
<polygon fill="blue" stroke="blue" stroke-width="2" points="1336.79,-126.64 1332.29,-119.45 1331.33,-127.87 1336.79,-126.64"/>
</g>
<!-- subfrm&#45;&gt;subfrm -->
<g id="edge5" class="edge">
<title>subfrm:n&#45;&gt;subfrm:n</title>
<path fill="none" stroke="red" stroke-width="2" stroke-dasharray="5,2" d="M1039.12,-116.5C1030.12,-136.5 1030.12,-175.5 1434.25,-175.5 1773.65,-175.5 1828.01,-147.99 1831.38,-127.33"/>
<polygon fill="red" stroke="red" stroke-width="2" points="1834.14,-126.83 1829.93,-119.48 1828.63,-127.85 1834.14,-126.83"/>
</g>
<!-- subfrm&#45;&gt;subfrm -->
<g id="edge6" class="edge">
<title>subfrm:n&#45;&gt;subfrm:n</title>
<path fill="none" stroke="red" stroke-width="2" stroke-dasharray="5,2" d="M1126.38,-116.5C1117.38,-136.5 1117.38,-175.5 1477.88,-175.5 1782.05,-175.5 1829.57,-147.74 1831.59,-127.05"/>
<polygon fill="red" stroke="red" stroke-width="2" points="1834.39,-126.71 1830,-119.46 1828.91,-127.87 1834.39,-126.71"/>
</g>
<!-- subfrm&#45;&gt;subfrm -->
<g id="edge7" class="edge">
<title>subfrm:n&#45;&gt;subfrm:n</title>
<path fill="none" stroke="red" stroke-width="2" stroke-dasharray="5,2" d="M1449.62,-116.5C1440.62,-136.5 1440.62,-175.5 1639.5,-175.5 1807.3,-175.5 1833.52,-147.74 1832.21,-127.05"/>
<polygon fill="red" stroke="red" stroke-width="2" points="1834.94,-126.42 1830.16,-119.42 1829.53,-127.88 1834.94,-126.42"/>
</g>
<!-- subfrm&#45;&gt;subfrm -->
<g id="edge8" class="edge">
<title>subfrm:n&#45;&gt;subfrm:n</title>
<path fill="none" stroke="red" stroke-width="2" stroke-dasharray="5,2" d="M1213.62,-116.5C1204.62,-136.5 1204.62,-175.5 1521.5,-175.5 1788.86,-175.5 1830.64,-147.74 1831.76,-127.05"/>
<polygon fill="red" stroke="red" stroke-width="2" points="1834.54,-126.64 1830.04,-119.45 1829.08,-127.87 1834.54,-126.64"/>
</g>
</g>
</svg>
